<?xml version="1.0" encoding="utf-8"?>
<!-- Generator: Adobe Illustrator 28.0.0, SVG Export Plug-In . SVG Version: 6.00 Build 0)  -->
<svg version="1.1" id="Calque_1" xmlns="http://www.w3.org/2000/svg" xmlns:xlink="http://www.w3.org/1999/xlink" x="0px" y="0px"
	 viewBox="0 0 283.46 113.39" style="enable-background:new 0 0 283.46 113.39;" xml:space="preserve">
<style type="text/css">
	.st0{fill:url(#SVGID_1_);}
	.st1{fill:none;}
	.st2{fill:url(#SVGID_00000139291039144729393100000017548585301337752763_);}
	.st3{opacity:0.7;fill:url(#SVGID_00000032610557034071324640000012086396390017414052_);}
	.st4{fill:url(#SVGID_00000077320297841570423910000002862735229970131639_);}
	.st5{opacity:0.65;fill:url(#SVGID_00000029738955863314828400000007363269698092118709_);}
	.st6{fill:url(#SVGID_00000033369903158072007960000004412656360128236725_);}
	.st7{fill:url(#SVGID_00000080896407375456845430000015459657889674613898_);}
	.st8{fill:#008279;}
	.st9{fill:url(#SVGID_00000093173764648015753670000009720815392086932368_);}
	.st10{fill:url(#SVGID_00000099632094459876317130000010574989010645754038_);}
	.st11{opacity:0.7;fill:url(#SVGID_00000000943046995367456370000011694078796493663158_);}
	.st12{fill:url(#SVGID_00000059306444885415795560000012943552556044206979_);}
	.st13{opacity:0.65;fill:url(#SVGID_00000164497301569110755140000018158143410807564954_);}
	.st14{fill:url(#SVGID_00000031922534075526824590000009295512157449649326_);}
	.st15{fill:url(#SVGID_00000013874418897010190050000001014418223629496977_);}
	.st16{fill:#FFFFFF;}
	.st17{fill:#12120D;}
</style>
<g>
	<path class="st8" d="M127.71,62.47c0-7.9-4.85-12.66-11.27-12.66c-6.41,0-11.27,4.76-11.27,12.66s4.85,12.66,11.27,12.66
		C122.86,75.13,127.71,70.37,127.71,62.47 M140.71,62.47c0,14.36-9.62,23.54-22.04,23.54c-4.24,0-7.9-1.06-10.86-3.25
		c-1.02-0.76-2.46,0-2.46,1.27v16.23c0,0.86-0.7,1.56-1.56,1.56h-9.71c-0.86,0-1.56-0.7-1.56-1.56V41.18c0-0.86,0.7-1.56,1.56-1.56
		h9.13c0.86,0,1.56,0.7,1.56,1.56v0c0,1.29,1.48,2.03,2.5,1.24c3-2.34,6.86-3.48,11.4-3.48C131.08,38.93,140.71,48.11,140.71,62.47"
		/>
	<path class="st8" d="M174.67,38.94c0,2.64,0,10.55,0,10.55c0,0.9-0.77,1.61-1.67,1.56c-0.39-0.02-0.79-0.04-1.21-0.04
		c-7.07,0-11.76,3.99-11.76,12.74v20.02c0,0.86-0.7,1.56-1.56,1.56h-9.71c-0.86,0-1.56-0.7-1.56-1.56V41.18
		c0-0.86,0.7-1.56,1.56-1.56h9.13c0.86,0,1.56,0.7,1.56,1.56v0.51c0,1.34,1.55,2.03,2.58,1.18
		C165.17,40.27,169.47,38.94,174.67,38.94"/>
	<path class="st8" d="M189.32,58.48h19.82c1.07,0,1.81-1.05,1.48-2.07c-1.49-4.58-5.33-7.44-10.36-7.44
		C194.42,48.96,190.22,52.61,189.32,58.48 M222.96,66.21h-31.34c-1.12,0-1.88,1.15-1.44,2.18c1.85,4.39,6.15,6.99,11.98,6.99
		c4.12,0,7.23-1.12,9.99-3.41c0.65-0.54,1.6-0.47,2.16,0.16l4.84,5.42c0.56,0.62,0.52,1.57-0.07,2.16
		c-4.09,4.13-9.9,6.29-17.25,6.29c-15.3,0-25.25-9.94-25.25-23.53c0-13.68,10.12-23.54,23.61-23.54c12.99,0,23.03,9,23.03,23.7
		C223.21,63.66,223.04,65.1,222.96,66.21"/>
	<path class="st8" d="M255.48,40.26l-7.87,10.91c-0.63,0.87-1.93,0.86-2.54-0.02l-7.65-10.88c-0.29-0.42-0.77-0.66-1.28-0.66h-10.52
		c-1.28,0-2.01,1.45-1.26,2.48l13.98,19.28c0.4,0.55,0.4,1.3-0.01,1.85l-14.51,19.61c-0.76,1.03-0.03,2.49,1.26,2.49h10.08
		c0.5,0,0.98-0.24,1.27-0.65l8.28-11.56c0.63-0.88,1.94-0.87,2.55,0.02l7.98,11.52c0.29,0.42,0.77,0.67,1.28,0.67h10.66
		c1.28,0,2.02-1.45,1.26-2.48l-14.61-19.77c-0.4-0.55-0.4-1.3,0-1.85l13.94-19.12c0.76-1.03,0.02-2.49-1.26-2.49h-9.77
		C256.25,39.61,255.78,39.86,255.48,40.26z"/>
	<g>
		<g>
			<linearGradient id="SVGID_1_" gradientUnits="userSpaceOnUse" x1="53.136" y1="86.9709" x2="53.136" y2="16.8891">
				<stop  offset="0.0287" style="stop-color:#008279"/>
				<stop  offset="0.4224" style="stop-color:#1B9387"/>
				<stop  offset="0.7361" style="stop-color:#3FAA97"/>
				<stop  offset="1" style="stop-color:#59BAA2"/>
			</linearGradient>
			<path class="st0" d="M87.91,81.38L55.8,19.14c-0.7-1.42-2.05-2.25-3.65-2.25h-7.12c-1.58,0-3.02,0.87-3.75,2.25L21.69,57.04
				c-0.87,1.72-1.88,4.2-2.41,6.05c-1.79,6.14-1.12,10.49-1.12,10.49c0.33,2.89,1.42,5.27,2.76,7.32c1.34,2.06,3.05,3.58,5.13,4.58
				c2.08,1,4.43,1.49,7.05,1.49c2.82,0,5.74-0.43,8.76-1.29c3.02-0.86,5.57-1.81,7.65-2.84c2.08-1.03,4.31-1.97,6.69-2.84
				c0.81-0.29,0.95-0.35,1.69-0.56l0.27-0.08c0,0,0.03-0.02,0.05-0.04c0.02-0.02,0.06-0.04,0.09-0.07c0.02-0.01,0.04-0.03,0.06-0.04
				c0.06-0.04,0.12-0.09,0.2-0.15c0,0,0.01-0.01,0.01-0.01c0.21-0.15,0.49-0.34,0.84-0.56c0.02-0.01,0.04-0.02,0.06-0.04
				c0.05-0.03,0.11-0.07,0.17-0.1c0.08-0.05,0.16-0.1,0.24-0.15c0.01-0.01,0.02-0.01,0.03-0.02c1.72-1.03,4.6-2.45,8.18-3.06
				c0,0,0,0,0,0c0,0,0,0,0,0c0.42-0.07,0.85-0.13,1.3-0.18c0.05-0.01,0.11-0.01,0.16-0.01c0.39-0.04,0.79-0.07,1.2-0.09
				c0.18-0.01,0.36,0,0.55,0c0.3,0,0.59-0.01,0.9,0c0.51,0.02,1.02,0.05,1.54,0.11c0,0,1.48,0.08,3.5,0.61
				c2.92,0.76,5.98,1.85,8.48,4.35c0.52,0.52,1.02,1.1,1.48,1.75c0,0,1.29,1.71,0.01,3.1c0.61-0.5,1.02-1.27,1.02-2.12
				C88.24,82.01,87.91,81.38,87.91,81.38z M54.14,67.36c-3.09,1.39-5.97,2.71-8.66,3.93c-2.69,1.23-4.87,1.84-6.54,1.84
				c-1.21,0-2.09-0.31-2.72-0.85c-1.93-1.63-1.54-4.45-0.77-6.75c0.27-0.82,0.63-1.61,1.02-2.39l12.16-23.92l0.03,0.07l13.08,25.37
				C57.23,65.76,54.14,67.36,54.14,67.36z"/>
			
				<linearGradient id="SVGID_00000051366046541862334980000005935771182078709385_" gradientUnits="userSpaceOnUse" x1="68.4865" y1="73.2397" x2="78.1792" y2="90.0278">
				<stop  offset="0.0891" style="stop-color:#CE7000"/>
				<stop  offset="0.7072" style="stop-color:#F6A100"/>
			</linearGradient>
			<path style="fill:url(#SVGID_00000051366046541862334980000005935771182078709385_);" d="M85.83,85.37c0.52-0.07,1-0.28,1.38-0.6
				c0,0,0,0,0,0c1.27-1.39-0.01-3.1-0.01-3.1c-0.46-0.65-0.96-1.23-1.48-1.75c-2.49-2.5-5.56-3.59-8.48-4.35
				c-2.03-0.53-3.5-0.61-3.5-0.61c-0.52-0.06-1.04-0.09-1.54-0.11c-0.3-0.01-0.6,0-0.9,0c-0.18,0-0.37,0-0.55,0
				c-0.41,0.02-0.8,0.05-1.2,0.09c-0.05,0.01-0.11,0.01-0.16,0.01c-0.44,0.05-0.87,0.11-1.3,0.18c0,0,0,0,0,0c0,0,0,0,0,0
				c-3.58,0.61-6.46,2.03-8.18,3.06c-0.01,0.01-0.02,0.01-0.03,0.02c-0.09,0.05-0.16,0.1-0.24,0.15c-0.06,0.03-0.12,0.07-0.17,0.1
				c-0.02,0.01-0.04,0.02-0.06,0.04c-0.35,0.22-0.63,0.42-0.84,0.56c0,0-0.01,0.01-0.01,0.01c-0.08,0.06-0.15,0.11-0.2,0.15
				c-0.02,0.02-0.04,0.03-0.06,0.04c-0.04,0.03-0.12,0.09-0.15,0.11c0.36-0.11,0.71-0.19,1.06-0.26c0.22-0.05,0.44-0.09,0.66-0.13
				c0,0,0,0,0,0c0.59-0.11,1.15-0.18,1.67-0.22c0,0,0.58-0.05,1.06-0.04c0.56,0.02,1.08,0.09,1.57,0.18
				c0.38,0.06,0.73,0.13,1.05,0.21c0.02,0,0.04,0.01,0.05,0.01c0.94,0.24,1.63,0.53,2.01,0.72c0.87,0.41,1.59,0.89,2.2,1.41
				c0.02,0.02,0.04,0.04,0.06,0.05c0.15,0.13,0.29,0.25,0.42,0.38c1.89,1.79,2.37,3.7,2.37,3.7h12.83h0.38
				C85.57,85.38,85.7,85.37,85.83,85.37z"/>
		</g>
		
			<linearGradient id="SVGID_00000080919878017205824050000007580004163619229612_" gradientUnits="userSpaceOnUse" x1="74.1204" y1="60.8525" x2="25.5436" y2="88.8983">
			<stop  offset="0.0147" style="stop-color:#25B092;stop-opacity:0"/>
			<stop  offset="0.9459" style="stop-color:#004325"/>
		</linearGradient>
		<path style="opacity:0.7;fill:url(#SVGID_00000080919878017205824050000007580004163619229612_);" d="M58.16,79.37
			c0,0,4.02-3.24,9.94-4.24c0.96-4.5,3.32-10.19,9.54-8.19c0,0-0.52-0.34-1.5-0.82c-1.46-0.72-3.98-1.71-7.79-1.93
			c-2.06-0.12-3.72-0.01-5.91,0.36c-1.64,0.28-3.24,0.82-4.95,1.4c0,0-27.23,25.52-36.63,14.84c0,0,3.55,6.92,13.89,6.14
			c2.04-0.15,4.38-0.44,6.99-1.23c0,0,2.62-0.65,6.18-2.14c1.44-0.61,2.71-1.28,3.9-1.8C54.39,80.63,56.45,79.85,58.16,79.37"/>
		
			<linearGradient id="SVGID_00000049195544226358902130000003420242868879320232_" gradientUnits="userSpaceOnUse" x1="58.9247" y1="39.87" x2="74.7293" y2="77.6664">
			<stop  offset="0.0147" style="stop-color:#25B092;stop-opacity:0"/>
			<stop  offset="0.9459" style="stop-color:#004325"/>
		</linearGradient>
		<path style="fill:url(#SVGID_00000049195544226358902130000003420242868879320232_);" d="M83.94,73.69L56.02,19.64
			c-0.74-1.53-2.06-2.56-3.77-2.57l0,0c-7.03-0.01-11.09,7.41-8,13.66l17.47,33.93C62.16,64.68,76.8,60.86,83.94,73.69L83.94,73.69z
			"/>
		
			<linearGradient id="SVGID_00000088818225792935279240000005351076261815746458_" gradientUnits="userSpaceOnUse" x1="58.1352" y1="35.6035" x2="50.7823" y2="31.3583">
			<stop  offset="0.1099" style="stop-color:#25B092;stop-opacity:0"/>
			<stop  offset="0.4253" style="stop-color:#198D6F;stop-opacity:0.3543"/>
			<stop  offset="1" style="stop-color:#004526"/>
		</linearGradient>
		<polygon style="opacity:0.65;fill:url(#SVGID_00000088818225792935279240000005351076261815746458_);" points="48.62,39.23 
			57.41,22.33 59.98,27.29 51.37,44.55 		"/>
		
			<linearGradient id="SVGID_00000137129427520503314980000008747401583749281981_" gradientUnits="userSpaceOnUse" x1="87.2158" y1="84.7788" x2="87.2158" y2="84.4077">
			<stop  offset="0.0287" style="stop-color:#008279"/>
			<stop  offset="0.4224" style="stop-color:#1B9387"/>
			<stop  offset="0.7361" style="stop-color:#3FAA97"/>
			<stop  offset="1" style="stop-color:#59BAA2"/>
		</linearGradient>
		
			<line style="fill:url(#SVGID_00000137129427520503314980000008747401583749281981_);" x1="87.22" y1="84.77" x2="87.22" y2="84.77"/>
		
			<linearGradient id="SVGID_00000047747634208500059050000002793119517089586074_" gradientUnits="userSpaceOnUse" x1="87.1904" y1="84.7237" x2="87.2158" y2="84.7678">
			<stop  offset="0.0891" style="stop-color:#CE7000"/>
			<stop  offset="0.7066" style="stop-color:#F6A100"/>
		</linearGradient>
		
			<line style="fill:url(#SVGID_00000047747634208500059050000002793119517089586074_);" x1="87.22" y1="84.77" x2="87.22" y2="84.77"/>
	</g>
</g>
</svg>
